# xmcd
# 
# Track frame offsets:
#     150
#     17595
#     34440
#     49382
#     66077
#     82080
#     90430
#     104370
#     119880
#     142897
# 
# Disc length: 2123
# 
# Revision: 0
# Processed by: cddbd v1.5.2PL0 Copyright (c) Steve Scherf et al.
# Submitted via: fre:ac v1.0.17
# 
DISCID=8b08490a
DTITLE=Cat Stevens - Wild World
DYEAR=0
DGENRE=Blues
TTITLE0=Where do the Children play
TTITLE1=Hard headed woman
TTITLE2=Wild World
TTITLE3=Sad Lisa
TTITLE4=Miles Form Nowhere
TTITLE5=But I Might Die Tonight
TTITLE6=Longer Boats
TTITLE7=Into White
TTITLE8=On The Road To Find Out
TTITLE9=Father and Son
EXTD=ID3G:   0
EXTT0=
EXTT1=
EXTT2=
EXTT3=
EXTT4=
EXTT5=
EXTT6=
EXTT7=
EXTT8=
EXTT9=
PLAYORDER=
